{
  "accessors": [
    {
      "bufferView": 2,
      "componentType": 5126,
      "count": 65532,
      "max": [
        11.383926391601562,
        -10.030607223510742,
        5.8133258819580078
      ],
      "min": [
        -7.2390332221984863,
        -22.126861572265625,
        -3.5848410129547119
      ],
      "type": "VEC3"
    },
    {
      "bufferView": 2,
      "byteOffset": 786384,
      "componentType": 5126,
      "count": 65532,
      "max": [
        0.99987882375717163,
        0.99990642070770264,
        0.99988150596618652
      ],
      "min": [
        -0.99997901916503906,
        -0.99997210502624512,
        -0.99996304512023926
      ],
      "type": "VEC3"
    },
    {
      "bufferView": 3,
      "componentType": 5126,
      "count": 65532,
      "max": [
        0.99998575448989868,
        0.99996644258499146,
        0.99993264675140381,
        1
      ],
      "min": [
        -0.99999445676803589,
        -0.99996298551559448,
        -0.99993938207626343,
        -1
      ],
      "type": "VEC4"
    },
    {
      "bufferView": 1,
      "componentType": 5126,
      "count": 65532,
      "max": [
        0.99770498275756836,
        1.0050200223922729
      ],
      "min": [
        0.0031749999616295099,
        0.0039059999398887157
      ],
      "type": "VEC2"
    },
    {
      "bufferView": 0,
      "componentType": 5125,
      "count": 309648,
      "max": [
        65531
      ],
      "min": [
        0
      ],
      "type": "SCALAR"
    },
    {
      "bufferView": 2,
      "byteOffset": 1572768,
      "componentType": 5126,
      "count": 4056,
      "max": [
        11.393825531005859,
        -10.066450119018555,
        5.7096118927001953
      ],
      "min": [
        -3.356982946395874,
        -22.081703186035156,
        -4.2697548866271973
      ],
      "type": "VEC3"
    },
    {
      "bufferView": 2,
      "byteOffset": 1621440,
      "componentType": 5126,
      "count": 4056,
      "max": [
        0.99974560737609863,
        0.99920225143432617,
        0.99695056676864624
      ],
      "min": [
        -0.99999594688415527,
        -0.99892187118530273,
        -0.99991238117218018
      ],
      "type": "VEC3"
    },
    {
      "bufferView": 3,
      "byteOffset": 1048512,
      "componentType": 5126,
      "count": 4056,
      "max": [
        0.99248921871185303,
        0.99996316432952881,
        0.99994164705276489,
        1
      ],
      "min": [
        -0.99733603000640869,
        -0.9895976185798645,
        -0.99979263544082642,
        -1
      ],
      "type": "VEC4"
    },
    {
      "bufferView": 1,
      "byteOffset": 524256,
      "componentType": 5126,
      "count": 4056,
      "max": [
        0.97559398412704468,
        0.99897098541259766
      ],
      "min": [
        0.0060820002108812332,
        0.0038000000640749931
      ],
      "type": "VEC2"
    },
    {
      "bufferView": 0,
      "byteOffset": 1238592,
      "componentType": 5125,
      "count": 19032,
      "max": [
        4055
      ],
      "min": [
        0
      ],
      "type": "SCALAR"
    }
  ],
  "asset": {
    "extras": {
      "author": "BojidarKN (https://sketchfab.com/bojidarkn)",
      "license": "CC-BY-4.0 (http://creativecommons.org/licenses/by/4.0/)",
      "source": "https://sketchfab.com/models/06a93014be8f49ef82b5f256b9e1df32",
      "title": "Slaveykov Square"
    },
    "generator": "Sketchfab-3.20.7",
    "version": "2.0"
  },
  "bufferViews": [
    {
      "buffer": 0,
      "byteLength": 1314720,
      "byteOffset": 0,
      "name": "floatBufferViews",
      "target": 34963
    },
    {
      "buffer": 0,
      "byteLength": 556704,
      "byteOffset": 1314720,
      "byteStride": 8,
      "name": "floatBufferViews",
      "target": 34962
    },
    {
      "buffer": 0,
      "byteLength": 1670112,
      "byteOffset": 1871424,
      "byteStride": 12,
      "name": "floatBufferViews",
      "target": 34962
    },
    {
      "buffer": 0,
      "byteLength": 1113408,
      "byteOffset": 3541536,
      "byteStride": 16,
      "name": "floatBufferViews",
      "target": 34962
    }
  ],
  "buffers": [
    {
      "byteLength": 4654944,
      "uri": "scene.bin"
    }
  ],
  "extensionsUsed": [
    "KHR_materials_unlit"
  ],
  "images": [
    {
      "uri": "textures/slaveikov_baseColor.jpg"
    }
  ],
  "materials": [
    {
      "doubleSided": true,
      "emissiveFactor": [
        0,
        0,
        0
      ],
      "extensions": {
        "KHR_materials_unlit": {}
      },
      "name": "slaveikov",
      "pbrMetallicRoughness": {
        "baseColorFactor": [
          1,
          1,
          1,
          1
        ],
        "baseColorTexture": {
          "index": 0,
          "texCoord": 0
        },
        "metallicFactor": 0,
        "roughnessFactor": 1
      }
    }
  ],
  "meshes": [
    {
      "primitives": [
        {
          "attributes": {
            "NORMAL": 1,
            "POSITION": 0,
            "TANGENT": 2,
            "TEXCOORD_0": 3
          },
          "indices": 4,
          "material": 0,
          "mode": 4
        }
      ]
    },
    {
      "primitives": [
        {
          "attributes": {
            "NORMAL": 6,
            "POSITION": 5,
            "TANGENT": 7,
            "TEXCOORD_0": 8
          },
          "indices": 9,
          "material": 0,
          "mode": 4
        }
      ]
    }
  ],
  "nodes": [
    {
      "children": [
        1
      ],
      "name": "RootNode (gltf orientation matrix)",
      "rotation": [
        -0.70710678118654746,
        -0,
        -0,
        0.70710678118654757
      ]
    },
    {
      "children": [
        2
      ],
      "matrix": [
        1,
        0,
        0,
        0,
        0,
        -0.98148578405380249,
        0.19153513014316559,
        0,
        0,
        -0.19153513014316559,
        -0.98148578405380249,
        0,
        0,
        -31.71202278137207,
        4.6089334487915039,
        1
      ],
      "name": "RootNode (model correction matrix)"
    },
    {
      "children": [
        3,
        4
      ],
      "name": "slaveikov.obj.cleaner.materialmerger.gles"
    },
    {
      "mesh": 0,
      "name": ""
    },
    {
      "mesh": 1,
      "name": ""
    }
  ],
  "samplers": [
    {
      "magFilter": 9729,
      "minFilter": 9987,
      "wrapS": 10497,
      "wrapT": 10497
    }
  ],
  "scene": 0,
  "scenes": [
    {
      "name": "OSG_Scene",
      "nodes": [
        0
      ]
    }
  ],
  "textures": [
    {
      "sampler": 0,
      "source": 0
    }
  ]
}

